<svg width="87" height="84" viewBox="0 0 87 84" fill="none" xmlns="http://www.w3.org/2000/svg">
<circle cx="46.6226" cy="39.6226" r="39.6226" fill="#C69B16"/>
<path d="M70.5 71.2264C62.5 77.2264 59.5 79.7264 43.5 82.7264C21.787 86.7976 4 63.094 4 40.7264C4 18.3589 12 12.2264 32 2.72644C54.0914 2.72644 70.5 48.8589 70.5 71.2264Z" fill="#C69B16"/>
<circle cx="39.6226" cy="43.6226" r="39.6226" fill="#E0C05D"/>
<path d="M9.41406 40.8906L21.9766 28.3281L25.9844 32.3594L17.4531 40.8906L25.9844 49.4219L21.9766 53.4297L9.41406 40.8906ZM42.25 21.2266H48.6016L37.7031 61.5391H31.3984L42.25 21.2266ZM54.0156 49.4219L62.5469 40.8906L54.0156 32.3594L58.0234 28.3281L70.5859 40.8906L58.0234 53.4297L54.0156 49.4219Z" fill="white"/>
</svg>
